<?xml version="1.0" encoding="UTF-8"?>
<svg xmlns="http://www.w3.org/2000/svg" xmlns:xlink="http://www.w3.org/1999/xlink" width="25px" height="25px" viewBox="0 0 25 25" version="1.1">
<g id="surface1">
<path style=" stroke:none;fill-rule:evenodd;fill:rgb(12.941176%,12.941176%,12.941176%);fill-opacity:1;" d="M 5.171875 16.335938 C 5.574219 16.335938 5.902344 16.6875 5.902344 17.117188 C 5.902344 17.546875 5.574219 17.898438 5.171875 17.898438 L 3.804688 17.898438 L 2.003906 23.445312 L 22.945312 23.445312 L 20.988281 17.898438 L 19.859375 17.898438 C 19.457031 17.898438 19.132812 17.546875 19.132812 17.117188 C 19.132812 16.6875 19.457031 16.335938 19.859375 16.335938 L 22.027344 16.335938 L 24.964844 25 L 0.0351562 25 L 2.738281 16.335938 Z M 5.171875 16.335938 "/>
<path style=" stroke:none;fill-rule:evenodd;fill:rgb(95.686275%,26.27451%,21.176471%);fill-opacity:1;" d="M 16.074219 18.148438 C 15.167969 19.214844 14.125 20.136719 12.972656 20.890625 C 12.828125 21.007812 12.628906 21.011719 12.476562 20.90625 C 10.835938 19.796875 9.378906 18.402344 8.167969 16.785156 C 6.597656 14.683594 5.609375 12.347656 5.269531 10.101562 C 4.933594 7.847656 5.25 5.621094 6.308594 3.835938 C 6.742188 3.113281 7.28125 2.46875 7.914062 1.9375 C 9.410156 0.660156 11.121094 -0.0117188 12.816406 0 C 14.554688 0.0273438 16.21875 0.753906 17.484375 2.035156 C 17.964844 2.507812 18.386719 3.054688 18.726562 3.65625 C 19.867188 5.667969 20.113281 8.230469 19.613281 10.828125 C 19.054688 13.558594 17.835938 16.082031 16.070312 18.140625 Z M 12.5 4.058594 C 14.523438 4.058594 16.164062 5.808594 16.164062 7.976562 C 16.164062 10.140625 14.523438 11.894531 12.5 11.894531 C 10.476562 11.894531 8.835938 10.140625 8.835938 7.976562 C 8.835938 5.808594 10.476562 4.058594 12.5 4.058594 Z M 12.5 4.058594 "/>
</g>
</svg>
