<?xml version="1.0" encoding="UTF-8"?>
<svg xmlns="http://www.w3.org/2000/svg" xmlns:xlink="http://www.w3.org/1999/xlink" width="25px" height="25px" viewBox="0 0 25 25" version="1.1">
<defs>
<linearGradient id="linear0" gradientUnits="userSpaceOnUse" x1="24" y1="42" x2="24" y2="6.207" gradientTransform="matrix(0.520833,0,0,0.520833,0,0)">
<stop offset="0" style="stop-color:rgb(10.196078%,78.431373%,98.823529%);stop-opacity:1;"/>
<stop offset="0.258" style="stop-color:rgb(10.588235%,71.372549%,98.039216%);stop-opacity:1;"/>
<stop offset="0.775" style="stop-color:rgb(10.980392%,52.54902%,96.078431%);stop-opacity:1;"/>
<stop offset="1" style="stop-color:rgb(11.372549%,43.921569%,94.901961%);stop-opacity:1;"/>
</linearGradient>
<filter id="alpha" filterUnits="objectBoundingBox" x="0%" y="0%" width="100%" height="100%">
  <feColorMatrix type="matrix" in="SourceGraphic" values="0 0 0 0 1 0 0 0 0 1 0 0 0 0 1 0 0 0 1 0"/>
</filter>
<mask id="mask0">
  <g filter="url(#alpha)">
<rect x="0" y="0" width="25" height="25" style="fill:rgb(0%,0%,0%);fill-opacity:0.0509804;stroke:none;"/>
  </g>
</mask>
<clipPath id="clip1">
  <rect x="0" y="0" width="25" height="25"/>
</clipPath>
<g id="surface5" clip-path="url(#clip1)">
<path style=" stroke:none;fill-rule:nonzero;fill:rgb(0%,0%,0%);fill-opacity:1;" d="M 17.707031 8.332031 C 17.800781 8.332031 17.890625 8.347656 17.976562 8.371094 L 13.898438 12.449219 C 13.511719 12.832031 13.007812 13.027344 12.5 13.027344 C 11.992188 13.027344 11.488281 12.832031 11.101562 12.449219 L 7.023438 8.371094 C 7.109375 8.347656 7.199219 8.332031 7.292969 8.332031 L 17.707031 8.332031 M 18.710938 9.109375 C 18.734375 9.195312 18.75 9.28125 18.75 9.375 L 18.75 15.625 C 18.75 15.71875 18.734375 15.804688 18.710938 15.890625 L 15.320312 12.5 L 18.710938 9.109375 M 6.289062 9.109375 L 9.679688 12.5 L 6.289062 15.890625 C 6.265625 15.804688 6.25 15.71875 6.25 15.625 L 6.25 9.375 C 6.25 9.28125 6.265625 9.195312 6.289062 9.109375 M 14.578125 13.230469 L 17.976562 16.628906 C 17.890625 16.652344 17.800781 16.667969 17.707031 16.667969 L 7.292969 16.667969 C 7.199219 16.667969 7.109375 16.652344 7.023438 16.628906 L 10.421875 13.230469 C 11.003906 13.785156 11.75 14.066406 12.5 14.066406 C 13.25 14.066406 13.996094 13.785156 14.578125 13.230469 M 17.707031 7.8125 L 7.292969 7.8125 C 7.164062 7.8125 7.035156 7.832031 6.890625 7.867188 C 6.710938 7.917969 6.570312 8.058594 6.523438 8.238281 C 6.472656 8.414062 6.523438 8.605469 6.652344 8.734375 C 6.554688 8.640625 6.421875 8.585938 6.289062 8.585938 C 6.242188 8.585938 6.199219 8.59375 6.152344 8.605469 C 5.972656 8.652344 5.832031 8.792969 5.785156 8.972656 C 5.746094 9.117188 5.730469 9.246094 5.730469 9.375 L 5.730469 15.625 C 5.730469 15.753906 5.746094 15.882812 5.785156 16.023438 C 5.832031 16.207031 5.972656 16.347656 6.152344 16.394531 C 6.199219 16.40625 6.242188 16.410156 6.289062 16.410156 C 6.421875 16.410156 6.554688 16.359375 6.652344 16.265625 C 6.523438 16.398438 6.472656 16.585938 6.523438 16.761719 C 6.570312 16.941406 6.710938 17.082031 6.890625 17.132812 C 7.035156 17.167969 7.164062 17.1875 7.292969 17.1875 L 17.707031 17.1875 C 17.835938 17.1875 17.964844 17.167969 18.109375 17.132812 C 18.289062 17.082031 18.429688 16.941406 18.476562 16.761719 C 18.527344 16.585938 18.476562 16.394531 18.347656 16.265625 C 18.445312 16.359375 18.578125 16.410156 18.710938 16.410156 C 18.757812 16.410156 18.800781 16.40625 18.847656 16.394531 C 19.027344 16.347656 19.167969 16.207031 19.214844 16.023438 C 19.253906 15.882812 19.269531 15.753906 19.269531 15.625 L 19.269531 9.375 C 19.269531 9.246094 19.253906 9.117188 19.214844 8.976562 C 19.167969 8.792969 19.027344 8.652344 18.847656 8.605469 C 18.800781 8.59375 18.757812 8.589844 18.710938 8.589844 C 18.578125 8.589844 18.445312 8.640625 18.347656 8.734375 C 18.476562 8.601562 18.523438 8.414062 18.476562 8.238281 C 18.429688 8.058594 18.289062 7.917969 18.109375 7.867188 C 17.964844 7.832031 17.835938 7.8125 17.707031 7.8125 Z M 17.707031 7.8125 "/>
</g>
<mask id="mask1">
  <g filter="url(#alpha)">
<rect x="0" y="0" width="25" height="25" style="fill:rgb(0%,0%,0%);fill-opacity:0.0705882;stroke:none;"/>
  </g>
</mask>
<clipPath id="clip2">
  <rect x="0" y="0" width="25" height="25"/>
</clipPath>
<g id="surface8" clip-path="url(#clip2)">
<path style=" stroke:none;fill-rule:nonzero;fill:rgb(0%,0%,0%);fill-opacity:1;" d="M 17.707031 8.074219 L 7.292969 8.074219 C 7.1875 8.074219 7.082031 8.089844 6.957031 8.121094 C 6.867188 8.144531 6.796875 8.214844 6.773438 8.304688 C 6.75 8.394531 6.777344 8.488281 6.839844 8.554688 L 10.917969 12.632812 C 11.339844 13.054688 11.902344 13.285156 12.5 13.285156 C 13.097656 13.285156 13.660156 13.054688 14.082031 12.632812 L 18.160156 8.554688 C 18.222656 8.492188 18.25 8.394531 18.226562 8.304688 C 18.203125 8.214844 18.132812 8.144531 18.042969 8.121094 C 17.917969 8.089844 17.8125 8.074219 17.707031 8.074219 Z M 18.710938 8.847656 C 18.644531 8.847656 18.578125 8.875 18.527344 8.925781 L 15.136719 12.316406 C 15.035156 12.417969 15.035156 12.582031 15.136719 12.683594 L 18.527344 16.074219 C 18.578125 16.125 18.644531 16.152344 18.710938 16.152344 C 18.734375 16.152344 18.757812 16.148438 18.777344 16.140625 C 18.871094 16.117188 18.9375 16.046875 18.964844 15.957031 C 18.996094 15.835938 19.011719 15.730469 19.011719 15.625 L 19.011719 9.375 C 19.011719 9.269531 18.996094 9.164062 18.964844 9.042969 C 18.9375 8.953125 18.867188 8.882812 18.777344 8.855469 C 18.757812 8.851562 18.734375 8.847656 18.710938 8.847656 Z M 6.289062 8.847656 C 6.265625 8.847656 6.242188 8.851562 6.222656 8.855469 C 6.128906 8.878906 6.0625 8.953125 6.035156 9.042969 C 6.003906 9.164062 5.988281 9.269531 5.988281 9.375 L 5.988281 15.625 C 5.988281 15.730469 6.003906 15.835938 6.035156 15.957031 C 6.0625 16.046875 6.132812 16.117188 6.222656 16.144531 C 6.242188 16.148438 6.265625 16.152344 6.289062 16.152344 C 6.355469 16.152344 6.421875 16.125 6.472656 16.074219 L 9.863281 12.683594 C 9.964844 12.582031 9.964844 12.417969 9.863281 12.316406 L 6.472656 8.925781 C 6.421875 8.875 6.355469 8.847656 6.289062 8.847656 Z M 14.578125 12.972656 C 14.511719 12.972656 14.449219 12.996094 14.398438 13.042969 C 13.878906 13.535156 13.207031 13.808594 12.5 13.808594 C 11.792969 13.808594 11.121094 13.535156 10.601562 13.042969 C 10.550781 12.996094 10.488281 12.972656 10.421875 12.972656 C 10.355469 12.972656 10.289062 12.996094 10.238281 13.046875 L 6.839844 16.445312 C 6.773438 16.507812 6.75 16.605469 6.773438 16.695312 C 6.796875 16.785156 6.867188 16.855469 6.957031 16.878906 C 7.082031 16.910156 7.1875 16.925781 7.292969 16.925781 L 17.707031 16.925781 C 17.8125 16.925781 17.917969 16.910156 18.042969 16.878906 C 18.132812 16.855469 18.203125 16.785156 18.226562 16.695312 C 18.25 16.605469 18.222656 16.511719 18.160156 16.445312 L 14.761719 13.046875 C 14.710938 12.996094 14.644531 12.972656 14.578125 12.972656 Z M 14.578125 12.972656 "/>
</g>
</defs>
<g id="surface1">
<path style=" stroke:none;fill-rule:nonzero;fill:url(#linear0);" d="M 17.707031 21.875 L 7.292969 21.875 C 4.996094 21.875 3.125 20.003906 3.125 17.707031 L 3.125 7.292969 C 3.125 4.996094 4.996094 3.125 7.292969 3.125 L 17.707031 3.125 C 20.003906 3.125 21.875 4.996094 21.875 7.292969 L 21.875 17.707031 C 21.875 20.003906 20.003906 21.875 17.707031 21.875 Z M 17.707031 21.875 "/>
<use xlink:href="#surface5" mask="url(#mask0)"/>
<use xlink:href="#surface8" mask="url(#mask1)"/>
<path style=" stroke:none;fill-rule:nonzero;fill:rgb(97.647059%,97.647059%,97.647059%);fill-opacity:1;" d="M 18.710938 9.109375 L 15.320312 12.5 L 18.710938 15.890625 C 18.734375 15.804688 18.75 15.71875 18.75 15.625 L 18.75 9.375 C 18.75 9.28125 18.734375 9.195312 18.710938 9.109375 Z M 13.898438 12.449219 L 17.976562 8.371094 C 17.890625 8.347656 17.800781 8.332031 17.707031 8.332031 L 7.292969 8.332031 C 7.199219 8.332031 7.109375 8.347656 7.023438 8.371094 L 11.101562 12.449219 C 11.871094 13.21875 13.128906 13.21875 13.898438 12.449219 Z M 6.289062 9.109375 C 6.265625 9.195312 6.25 9.28125 6.25 9.375 L 6.25 15.625 C 6.25 15.71875 6.265625 15.804688 6.289062 15.890625 L 9.679688 12.5 Z M 12.5 14.066406 C 11.75 14.066406 11.003906 13.785156 10.421875 13.230469 L 7.023438 16.628906 C 7.109375 16.652344 7.199219 16.667969 7.292969 16.667969 L 17.707031 16.667969 C 17.800781 16.667969 17.890625 16.652344 17.976562 16.628906 L 14.578125 13.230469 C 13.996094 13.785156 13.25 14.066406 12.5 14.066406 Z M 12.5 14.066406 "/>
</g>
</svg>
