<?xml version="1.0" encoding="UTF-8"?>
<svg xmlns="http://www.w3.org/2000/svg" xmlns:xlink="http://www.w3.org/1999/xlink" width="25px" height="25px" viewBox="0 0 25 25" version="1.1">
<g id="surface1">
<path style=" stroke:none;fill-rule:nonzero;fill:rgb(0%,0%,0%);fill-opacity:1;" d="M 7 1.996094 C 4.246094 1.996094 2 4.238281 2 6.996094 L 2 17.996094 C 2 20.75 4.246094 22.996094 7 22.996094 L 18 22.996094 C 20.753906 22.996094 23 20.75 23 17.996094 L 23 6.996094 C 23 4.238281 20.753906 1.996094 18 1.996094 Z M 7 2.996094 L 18 2.996094 C 20.214844 2.996094 22 4.78125 22 6.996094 L 22 17.996094 C 22 20.210938 20.214844 21.996094 18 21.996094 L 7 21.996094 C 4.785156 21.996094 3 20.210938 3 17.996094 L 3 6.996094 C 3 4.78125 4.785156 2.996094 7 2.996094 Z M 9.023438 5.515625 C 8 5.472656 7.226562 5.863281 6.738281 6.328125 C 6.492188 6.5625 6.316406 6.8125 6.195312 7.046875 C 6.074219 7.277344 6 7.472656 6 7.722656 C 6 7.699219 5.992188 7.816406 5.992188 7.953125 C 5.988281 8.089844 5.988281 8.269531 6 8.492188 C 6.023438 8.933594 6.101562 9.53125 6.296875 10.242188 C 6.695312 11.660156 7.59375 13.523438 9.535156 15.464844 C 11.476562 17.40625 13.339844 18.304688 14.757812 18.703125 C 15.46875 18.898438 16.066406 18.976562 16.507812 19 C 16.730469 19.011719 16.910156 19.011719 17.046875 19.007812 C 17.183594 19.007812 17.300781 19 17.277344 19 C 17.527344 19 17.722656 18.925781 17.953125 18.804688 C 18.1875 18.683594 18.4375 18.507812 18.671875 18.261719 C 19.136719 17.773438 19.527344 17 19.484375 15.976562 C 19.460938 15.488281 19.191406 15.054688 18.789062 14.800781 C 18.480469 14.601562 18.003906 14.292969 17.375 13.894531 C 16.652344 13.429688 15.722656 13.398438 14.964844 13.8125 L 15.007812 13.789062 L 14.417969 14.042969 L 14.375 14.074219 C 14.234375 14.175781 14.054688 14.191406 13.894531 14.125 C 13.445312 13.9375 12.742188 13.566406 12.085938 12.914062 C 11.433594 12.257812 11.0625 11.554688 10.875 11.105469 C 10.808594 10.945312 10.824219 10.765625 10.925781 10.625 L 10.957031 10.582031 L 11.210938 9.992188 L 11.1875 10.035156 C 11.601562 9.277344 11.570312 8.347656 11.105469 7.625 C 10.707031 6.996094 10.398438 6.519531 10.199219 6.210938 C 9.945312 5.808594 9.511719 5.539062 9.023438 5.515625 Z M 8.980469 6.515625 C 9.121094 6.523438 9.265625 6.605469 9.359375 6.75 C 9.554688 7.058594 9.863281 7.535156 10.265625 8.164062 C 10.527344 8.578125 10.546875 9.121094 10.3125 9.554688 L 10.296875 9.578125 L 10.058594 10.140625 L 10.109375 10.046875 C 9.8125 10.46875 9.753906 11.015625 9.953125 11.492188 C 10.175781 12.03125 10.609375 12.847656 11.378906 13.621094 C 12.152344 14.390625 12.96875 14.824219 13.507812 15.046875 C 13.984375 15.246094 14.53125 15.1875 14.953125 14.890625 L 14.859375 14.941406 L 15.421875 14.703125 L 15.445312 14.6875 C 15.878906 14.453125 16.421875 14.472656 16.835938 14.738281 L 16.835938 14.734375 C 17.464844 15.136719 17.941406 15.445312 18.25 15.640625 C 18.394531 15.734375 18.476562 15.878906 18.484375 16.019531 C 18.515625 16.777344 18.253906 17.253906 17.949219 17.570312 C 17.796875 17.730469 17.632812 17.84375 17.496094 17.914062 C 17.359375 17.988281 17.230469 18 17.277344 18 C 17.1875 18 17.136719 18.007812 17.023438 18.007812 C 16.910156 18.011719 16.753906 18.011719 16.5625 18 C 16.183594 17.980469 15.660156 17.914062 15.027344 17.738281 C 13.761719 17.382812 12.070312 16.585938 10.242188 14.757812 C 8.414062 12.929688 7.617188 11.238281 7.261719 9.972656 C 7.085938 9.339844 7.019531 8.816406 7 8.4375 C 6.988281 8.246094 6.988281 8.089844 6.992188 7.976562 C 6.992188 7.863281 7 7.8125 7 7.722656 C 7 7.769531 7.011719 7.640625 7.085938 7.503906 C 7.15625 7.367188 7.269531 7.203125 7.429688 7.050781 C 7.746094 6.746094 8.222656 6.484375 8.980469 6.515625 Z M 8.980469 6.515625 "/>
</g>
</svg>
